<svg width="81" height="81" viewBox="0 0 81 81" fill="none" xmlns="http://www.w3.org/2000/svg">
<path d="M37.749 1.41964C25.9467 2.40787 15.5467 8.23375 8.71375 17.702C4.80786 23.1137 2.37963 29.4479 1.55139 36.3843C1.34433 38.1255 1.30669 42.7655 1.49492 44.4314C2.0408 49.2879 3.21728 53.4949 5.19375 57.589C7.30198 61.9843 9.8808 65.5514 13.3632 68.9302C19.4526 74.8126 27.0667 78.4643 35.7255 79.6408C37.542 79.8855 41.7679 79.989 43.7067 79.829C55.8855 78.8126 66.6432 72.4879 73.3914 62.3608C77.0808 56.8173 79.2549 50.5208 79.829 43.7067C79.989 41.749 79.8855 37.5514 79.6408 35.6785C78.2102 25.1655 72.9773 16.0079 64.7137 9.56081C63.622 8.71375 61.2408 7.12316 59.989 6.41728C55.4243 3.83846 50.2949 2.18199 44.902 1.56081C43.4055 1.38199 39.1702 1.3067 37.749 1.41964ZM27.9137 22.7843C28.2055 23.4808 28.4785 24.0926 28.5161 24.1302C28.5537 24.1679 28.8549 23.5655 29.1843 22.7843C29.5137 22.0032 29.8055 21.4008 29.8526 21.4385C29.9279 21.5232 45.8337 59.0573 45.8714 59.2361C45.8808 59.3208 44.9208 59.349 41.9467 59.349H38.0032L36.1867 55.1608C35.189 52.8549 34.1726 50.5208 33.9373 49.9561L33.4949 48.949H28.5726H23.6502L23.0385 50.3326C22.6996 51.1043 22.3796 51.829 22.3326 51.9608C22.1067 52.5443 19.1796 59.1702 19.0855 59.2832C18.9537 59.4526 11.2455 59.4055 11.2737 59.2361C11.349 58.869 27.2549 21.382 27.3114 21.4385C27.349 21.4855 27.622 22.0879 27.9137 22.7843ZM60.0267 22.8314C64.1679 23.3773 67.0479 24.6008 69.1749 26.7373C71.5467 29.0996 72.6761 32.0643 72.6761 35.8573C72.6667 39.2267 71.7537 41.8902 69.8149 44.1585C68.3185 45.909 66.4643 47.1138 64.0455 47.9043C61.7867 48.6385 60.0361 48.8549 56.3185 48.8549H53.8432L53.8243 54.0973L53.7961 59.349H49.9373H46.0785L46.0502 51.5561L46.0314 43.7726H51.5279C56.1302 43.7726 57.1467 43.7443 57.8055 43.622C58.2385 43.5467 58.6337 43.4432 58.6714 43.4055C58.709 43.3679 57.8808 42.1537 56.8361 40.7043C54.9726 38.1443 54.0314 36.8832 47.0385 27.4243C45.1937 24.9208 43.6785 22.8408 43.6785 22.7843C43.6785 22.7185 46.2667 22.6902 51.2926 22.6902C57.6173 22.6902 59.1043 22.7185 60.0267 22.8314Z" fill="black"/>
<path d="M20.3843 38.9067C16.6102 47.8573 13.1655 56.0079 12.742 57.0149L11.9796 58.8314H14.1161H16.2432L17.862 55.1326C18.7467 53.0996 19.7632 50.7467 20.1208 49.909L20.7608 48.3843H27.302H33.8432L36.0643 53.5796L38.2855 58.7843L40.469 58.8126C41.6737 58.822 42.6337 58.8032 42.6055 58.7561C42.5867 58.7185 39.1514 50.6243 34.982 40.7702C30.8126 30.9255 27.3679 22.8126 27.3302 22.7373C27.2832 22.662 24.6102 28.8926 20.3843 38.9067ZM29.7302 38.5679C31.0385 41.6926 32.102 44.2808 32.102 44.3373C32.102 44.4032 30.4643 44.4314 27.2549 44.4314C24.5914 44.4314 22.4079 44.4126 22.4079 44.3843C22.4079 44.309 24.9867 38.0785 26.1726 35.2832C26.7655 33.8902 27.2737 32.789 27.302 32.8361C27.3396 32.8737 28.4314 35.4526 29.7302 38.5679Z" fill="black"/>
<path d="M28.4314 37.382C28.0079 38.3514 25.7773 43.5749 25.7302 43.6973C25.6832 43.8573 25.862 43.8667 28.5161 43.8667C30.069 43.8667 31.349 43.8479 31.349 43.8196C31.349 43.7632 28.6102 37.2408 28.5632 37.1937C28.5443 37.1749 28.4879 37.2596 28.4314 37.382Z" fill="black"/>
<path d="M45.429 24.3561C49.109 29.3255 56.1396 38.8973 58.7279 42.4832C59.2079 43.1514 59.5843 43.7067 59.5655 43.7349C59.462 43.8385 58.0032 44.149 57.1937 44.2337C56.6761 44.2996 54.2573 44.3373 51.4432 44.3373H46.5961V51.5843V58.8314H48.6667H50.7373V53.5702V48.309L54.4361 48.262C57.9937 48.2243 58.1632 48.2149 59.2832 47.9702C61.5796 47.4808 63.0008 46.9161 64.469 45.9373C67.669 43.7914 69.4573 40.4973 69.6267 36.3843C69.8337 31.5749 67.7914 27.5937 63.9514 25.3067C62.7184 24.582 61.2126 24.0643 58.8784 23.5561L57.749 23.3114L51.1796 23.2832L44.6102 23.2455L45.429 24.3561ZM58.0879 27.4526C60.5443 27.8667 62.8032 29.0808 63.9514 30.6055C65.0526 32.0737 65.5232 33.6173 65.5232 35.8102C65.5232 38.2102 64.9114 40.0737 63.6502 41.5043L63.2926 41.9185L62.6902 41.0808C61.2126 39.0196 57.1937 33.5232 56.1961 32.1961C55.1514 30.8032 53.2126 28.102 52.8549 27.5561L52.6949 27.302H54.9443C56.5632 27.302 57.4479 27.3396 58.0879 27.4526Z" fill="black"/>
<path d="M56.2902 27.9043C56.2902 28.0079 57.6643 29.9185 59.5843 32.4785C60.4973 33.6926 61.8996 35.6032 62.6902 36.7137C64.5726 39.3584 64.4314 39.2173 64.6196 38.5867C65.4479 35.7914 64.9961 32.7232 63.4714 30.8314C62.1537 29.2126 59.669 28.0361 57.2596 27.8949C56.7232 27.8667 56.2902 27.8667 56.2902 27.9043Z" fill="black"/>
</svg>
